<svg xmlns="http://www.w3.org/2000/svg" version="1.0" width="501.000000pt" height="498.000000pt" viewBox="0 0 501.000000 498.000000" preserveAspectRatio="xMidYMid meet">

<g transform="translate(0.000000,498.000000) scale(0.100000,-0.100000)" fill="#206d4b" stroke="none">
<path d="M2465 4932 c-21 -24 -91 -86 -154 -137 -64 -50 -137 -115 -163 -143 -58 -62 -126 -166 -166 -253 -34 -75 -76 -215 -67 -228 3 -5 0 -13 -6 -16 -5 -4 -8 -13 -5 -20 5 -14 -9 -134 -17 -141 -3 -3 -42 22 -88 56 -109 78 -303 175 -404 200 -92 24 -262 28 -385 10 -79 -11 -242 -16 -257 -7 -4 3 -8 -40 -8 -96 0 -56 -7 -162 -14 -235 -19 -174 -7 -283 48 -422 39 -101 115 -236 183 -326 21 -28 38 -55 38 -60 0 -8 -36 -15 -214 -39 -88 -13 -246 -80 -346 -148 -72 -50 -157 -135 -241 -243 -43 -56 -101 -122 -129 -147 l-51 -46 47 -43 c26 -24 81 -86 122 -138 95 -121 143 -171 216 -227 114 -89 314 -175 432 -187 119 -11 164 -19 164 -30 0 -6 -13 -27 -29 -46 -57 -70 -152 -237 -191 -336 -56 -144 -69 -250 -49 -426 7 -73 14 -178 14 -234 l0 -101 40 9 c27 7 88 4 194 -8 210 -23 358 -16 466 21 129 45 267 119 377 202 31 24 59 43 62 43 5 0 13 -37 21 -110 3 -25 7 -62 10 -82 8 -67 36 -151 81 -241 80 -160 151 -244 309 -367 56 -44 124 -103 151 -133 l49 -54 45 50 c25 28 97 92 160 142 165 131 225 202 304 362 39 79 78 189 75 210 -1 4 0 11 1 16 1 4 4 16 5 27 1 11 3 21 4 23 1 1 4 22 6 47 7 70 15 110 23 110 4 -1 36 -23 71 -49 129 -98 315 -190 438 -216 90 -19 237 -19 404 1 99 12 149 13 182 6 l46 -9 -6 66 c-3 38 2 130 12 216 23 195 10 364 -35 460 -5 11 -22 49 -38 85 -31 71 -119 215 -163 270 -16 19 -29 40 -29 46 0 11 68 24 147 29 13 1 26 4 29 8 3 3 11 4 18 1 18 -7 170 43 241 78 146 74 231 146 355 303 48 60 111 132 139 158 l52 48 -51 46 c-28 25 -86 91 -129 147 -84 108 -169 193 -241 243 -113 77 -287 146 -395 157 -125 13 -165 20 -165 29 0 6 17 33 38 61 111 147 204 341 228 475 18 101 17 178 -2 336 -9 72 -14 161 -11 201 l5 71 -45 -7 c-42 -7 -187 2 -262 15 -76 14 -265 6 -344 -14 -127 -33 -304 -123 -430 -219 -32 -24 -60 -42 -63 -39 -5 5 -17 79 -29 181 -18 154 -117 355 -238 483 -29 31 -100 93 -158 139 -59 46 -126 105 -151 132 l-44 49 -39 -45z m61 -729 c11 -262 11 -801 1 -885 -6 -46 -13 -68 -22 -68 -23 0 -30 115 -29 455 1 427 12 695 29 695 10 0 15 -48 21 -197z m278 -275 c10 -59 8 -309 -3 -398 -10 -83 -62 -255 -86 -285 -15 -19 -16 -13 -12 75 3 52 15 134 26 182 12 48 23 109 25 135 3 27 5 50 7 53 5 11 8 81 8 178 0 81 3 102 14 102 9 0 17 -16 21 -42z m-574 -21 c0 -82 28 -300 55 -433 14 -67 25 -150 24 -185 l-1 -64 -24 53 c-62 136 -91 350 -78 570 6 113 24 156 24 59z m1624 -99 c-80 -94 -564 -604 -615 -648 -218 -190 -234 -174 -44 44 33 38 157 159 275 270 338 317 393 367 398 361 3 -3 -3 -15 -14 -27z m-2517 -148 c338 -312 630 -616 612 -635 -7 -6 -150 112 -233 193 -66 64 -186 191 -540 571 -83 88 -12 32 161 -129z m484 -82 c59 -59 128 -136 154 -170 51 -67 141 -245 131 -256 -10 -9 -77 70 -143 168 -94 139 -191 267 -254 335 -127 135 -38 74 112 -77z m1482 74 c-80 -90 -153 -188 -245 -327 -71 -108 -158 -202 -158 -172 0 24 74 169 123 242 50 73 309 335 332 335 10 0 -8 -27 -52 -78z m-1855 -490 c42 -33 124 -91 182 -130 122 -82 213 -161 189 -162 -27 0 -193 87 -247 129 -130 103 -322 296 -322 325 0 4 27 -17 60 -48 34 -31 96 -82 138 -114z m2291 126 c-47 -61 -223 -232 -293 -284 -69 -52 -243 -141 -253 -130 -11 11 65 76 167 143 128 85 257 183 330 251 36 34 69 61 73 62 5 0 -6 -19 -24 -42z m-1061 -204 c395 -103 586 -573 375 -922 -116 -191 -316 -304 -538 -304 -218 0 -403 101 -528 289 -117 179 -124 449 -16 640 141 248 429 369 707 297z m-1301 -318 c56 -3 129 -12 163 -21 90 -23 200 -66 200 -77 0 -12 -117 -2 -215 18 -165 35 -383 63 -494 64 -13 0 -21 3 -17 7 8 9 171 20 226 16 19 -1 81 -4 137 -7z m2608 -6 c12 -5 -23 -10 -90 -15 -113 -8 -287 -32 -410 -58 -98 -21 -215 -31 -215 -19 0 11 111 54 202 78 104 27 453 36 513 14z m-2438 -265 c212 -10 229 -27 46 -45 -92 -9 -211 -10 -442 -4 -174 4 -319 9 -323 10 -5 1 -62 2 -128 3 -66 0 -120 5 -120 10 0 10 158 18 505 27 143 4 262 8 264 10 2 2 22 1 45 -1 22 -2 91 -7 153 -10z m2558 -5 c295 -10 336 -13 324 -24 -6 -6 -534 -21 -759 -21 -415 0 -525 37 -161 54 75 3 168 5 206 4 39 -2 214 -8 390 -13z m-2365 -218 c0 -10 -126 -59 -203 -78 -114 -27 -539 -31 -522 -4 2 4 44 8 92 9 49 1 115 6 148 11 33 5 83 11 110 15 28 3 77 12 110 21 113 27 265 43 265 26z m1780 -23 c161 -32 296 -49 390 -49 96 0 120 -14 43 -26 -75 -11 -410 3 -480 20 -81 20 -203 68 -203 79 0 13 133 0 250 -24z m-1735 -225 c-27 -24 -88 -70 -135 -102 -137 -92 -267 -190 -336 -254 -35 -33 -64 -56 -64 -51 0 33 263 291 358 351 57 36 194 102 211 102 10 -1 -4 -19 -34 -46z m1508 5 c99 -50 158 -91 256 -178 76 -68 224 -232 216 -239 -2 -3 -37 26 -78 64 -41 38 -130 108 -198 156 -212 150 -223 158 -269 198 -60 53 -34 52 73 -1z m-1384 -176 c-24 -31 -84 -99 -133 -151 -99 -103 -611 -585 -629 -591 -21 -8 360 405 541 586 97 97 252 226 260 218 3 -2 -15 -30 -39 -62z m1236 3 c85 -68 197 -179 434 -430 242 -256 299 -321 284 -315 -17 6 -478 437 -595 556 -96 97 -208 230 -208 247 0 9 0 10 85 -58z m-1035 -73 c0 -21 -94 -196 -132 -244 -102 -131 -311 -339 -326 -324 -3 2 21 32 52 66 66 71 186 228 240 314 72 114 166 220 166 188z m861 -55 c29 -35 72 -93 96 -131 68 -106 150 -215 226 -300 38 -43 68 -80 65 -82 -7 -8 -157 130 -234 216 -83 92 -140 173 -179 255 -59 125 -52 136 26 42z m-681 -239 c-31 -152 -49 -277 -56 -400 -4 -60 -10 -109 -14 -109 -12 0 -21 195 -15 313 8 138 28 238 69 342 l31 80 3 -61 c2 -35 -6 -106 -18 -165z m448 151 c40 -100 59 -203 67 -343 7 -139 -1 -317 -15 -317 -4 0 -10 53 -13 118 -3 64 -8 126 -10 137 -3 11 -8 45 -12 75 -4 30 -18 107 -31 170 -23 113 -32 243 -16 225 5 -6 19 -35 30 -65z m-209 -115 c9 -97 9 -229 0 -520 -6 -214 -14 -408 -18 -430 -8 -39 -8 -39 -14 25 -16 168 -28 789 -17 920 6 74 13 142 16 150 11 32 22 -16 33 -145z" fill="#206d4b"/>
</g>
</svg>